HIERARCHY
ROOT Hips
{
 OFFSET 0.000000 0.000000 0.000000
 CHANNELS 6 Xposition Yposition Zposition Yrotation Xrotation Zrotation
 JOINT Chest
 {
  OFFSET 0.000000 11.395451 -0.039534
  CHANNELS 3 Yrotation Xrotation Zrotation
  JOINT Chest2
  {
   OFFSET 0.000000 9.398669 0.071813
   CHANNELS 3 Yrotation Xrotation Zrotation
   JOINT Chest3
   {
    OFFSET 0.000000 8.489801 0.000000
    CHANNELS 3 Yrotation Xrotation Zrotation
    JOINT Chest4
    {
     OFFSET 0.000000 8.489801 0.000000
     CHANNELS 3 Yrotation Xrotation Zrotation
     JOINT Neck
     {
      OFFSET 0.000000 12.404889 0.000000
      CHANNELS 3 Yrotation Xrotation Zrotation
      JOINT Head
      {
       OFFSET 0.000000 8.903270 0.092239
       CHANNELS 3 Yrotation Xrotation Zrotation
       End Site
       {
        OFFSET 0.000000 17.592497 0.007158
       }
      }
     }
     JOINT RightCollar
     {
      OFFSET -3.196775 6.966722 0.000000
      CHANNELS 3 Yrotation Xrotation Zrotation
      JOINT RightShoulder
      {
       OFFSET -15.955896 0.000000 0.000000
       CHANNELS 3 Yrotation Xrotation Zrotation
       JOINT RightElbow
       {
        OFFSET -24.792472 0.000000 0.000000
        CHANNELS 3 Yrotation Xrotation Zrotation
        JOINT RightWrist
        {
         OFFSET -20.900115 0.000000 0.025002
         CHANNELS 3 Yrotation Xrotation Zrotation
         End Site
         {
          OFFSET -16.056692 0.000000 0.000000
         }
        }
       }
      }
     }
     JOINT LeftCollar
     {
      OFFSET 3.196775 6.966722 0.000000
      CHANNELS 3 Yrotation Xrotation Zrotation
      JOINT LeftShoulder
      {
       OFFSET 15.955896 0.000000 0.000000
       CHANNELS 3 Yrotation Xrotation Zrotation
       JOINT LeftElbow
       {
        OFFSET 24.792472 0.000000 0.000000
        CHANNELS 3 Yrotation Xrotation Zrotation
        JOINT LeftWrist
        {
         OFFSET 20.900115 0.000000 0.025002
         CHANNELS 3 Yrotation Xrotation Zrotation
         End Site
         {
          OFFSET 16.056692 0.000000 0.000000
         }
        }
       }
      }
     }
    }
   }
  }
 }
 JOINT RightHip
 {
  OFFSET -9.568995 0.193718 0.019767
  CHANNELS 3 Yrotation Xrotation Zrotation
  JOINT RightKnee
  {
   OFFSET 0.000000 -56.649296 0.015402
   CHANNELS 3 Yrotation Xrotation Zrotation
   JOINT RightAnkle
   {
    OFFSET 0.000000 -41.365147 0.021264
    CHANNELS 3 Yrotation Xrotation Zrotation
    JOINT RightToe
    {
     OFFSET 0.000000 -7.465940 17.672538
     CHANNELS 3 Yrotation Xrotation Zrotation
     End Site
     {
      OFFSET 0.000000 -1.736315 7.837145
     }
    }
   }
  }
 }
 JOINT LeftHip
 {
  OFFSET 9.568995 0.193718 0.019767
  CHANNELS 3 Yrotation Xrotation Zrotation
  JOINT LeftKnee
  {
   OFFSET 0.000000 -56.649296 0.015402
   CHANNELS 3 Yrotation Xrotation Zrotation
   JOINT LeftAnkle
   {
    OFFSET 0.000000 -41.365147 0.021264
    CHANNELS 3 Yrotation Xrotation Zrotation
    JOINT LeftToe
    {
     OFFSET 0.000000 -7.465940 17.672538
     CHANNELS 3 Yrotation Xrotation Zrotation
     End Site
     {
      OFFSET 0.000000 -1.736315 7.837145
     }
    }
   }
  }
 }
}
MOTION
Frames: 5
Frame Time: 0.016667
-16.255586 102.849699 305.413606 -25.306500 -1.252811 -5.169206 -1.377412 5.767381 3.043847 -0.649251 2.554218 1.368194 -0.649251 2.554218 1.368194 -0.492582 1.914224 1.028692 4.266643 12.623959 -3.516681 9.570391 -12.287878 -8.453686 3.405908 -0.637589 6.469276 13.733013 -11.288637 43.278488 45.476840 -42.181332 34.294027 -13.762018 -20.009579 6.267323 5.576033 3.149008 -6.503778 11.095698 -14.958568 -53.198863 -29.867164 -54.618231 -50.963844 24.923801 -11.470129 -4.122011 0.352430 3.086870 9.723133 -4.516807 21.497653 -1.561755 2.474953 -22.489593 -1.092877 -0.005596 -0.408048 -2.850132 20.961385 -22.339366 -3.720404 11.848607 1.158090 -1.050273 10.500863 -2.590573 -4.925111 0.000000 -0.000000 0.000000
-16.953027 102.570044 306.787553 -25.218093 -1.114909 -5.322489 -1.063437 5.633794 2.970134 -0.508122 2.497110 1.331344 -0.508109 2.497123 1.331347 -0.386458 1.871754 1.000432 4.214445 12.504108 -3.432845 9.451174 -12.525278 -8.287670 3.479544 -0.329573 6.381491 13.641025 -11.533312 43.377173 45.416148 -42.005032 34.225548 -13.556940 -20.005790 6.419721 5.623548 3.188971 -6.513829 11.061598 -14.927890 -53.081203 -30.171010 -54.394697 -50.753713 24.846446 -11.360380 -4.576607 0.454935 3.433735 9.764328 -4.921419 22.422538 -1.498986 2.818308 -23.130859 -0.677646 0.021433 -1.285145 -3.495174 18.714888 -23.051830 -3.123273 11.525234 3.169297 -0.499447 8.717349 -3.116778 -2.790543 0.000000 -0.000000 0.000000
-17.620239 102.285300 308.195104 -25.291549 -0.938415 -5.398017 -0.692505 5.473944 2.828616 -0.340783 2.428672 1.263877 -0.340768 2.428680 1.263883 -0.260558 1.820811 0.949130 4.163554 12.373589 -3.305974 9.317407 -12.786890 -8.041221 3.596368 0.084734 6.297216 13.533585 -11.876679 43.554209 45.337148 -41.785647 34.112985 -13.294371 -19.949710 6.604193 5.655104 3.234686 -6.516025 11.086068 -14.898627 -52.930997 -30.584831 -54.118006 -50.426824 24.767015 -11.214841 -5.189624 0.547732 3.651801 9.656303 -5.178358 23.575926 -1.400791 3.214190 -23.756800 -0.170803 0.079646 -2.510299 -4.057174 16.582828 -23.766194 -2.597165 10.486757 5.515733 0.159249 6.607095 -3.363010 0.363687 0.000000 0.000000 -0.000000
-18.293501 102.048378 309.626234 -25.601773 -0.771160 -5.350845 -0.258320 5.314456 2.576185 -0.144213 2.360524 1.146665 -0.144213 2.360524 1.146665 -0.112576 1.770130 0.860434 4.127757 12.234306 -3.143046 9.197494 -13.066698 -7.732801 3.698822 0.450206 6.347077 13.476859 -12.196697 43.820660 45.234501 -41.492617 33.959772 -12.983103 -19.843539 6.787690 5.625288 3.199963 -6.491774 11.216793 -14.762547 -52.724143 -30.978387 -53.886573 -49.996608 24.630427 -11.064164 -5.859671 0.675244 3.659119 9.324952 -5.588894 25.177533 -1.399211 3.937539 -24.171895 0.640513 0.165900 -3.956815 -4.939685 15.206496 -24.043220 -2.215006 8.729973 6.992952 0.493192 6.117357 -2.566033 2.782997 -0.000000 -0.000000 0.000000
-19.022699 101.868313 311.113216 -26.385451 -0.653634 -5.140929 0.328522 5.135752 2.165182 0.121809 2.283957 0.957624 0.121795 2.283946 0.957609 0.087755 1.713174 0.717651 4.121712 12.102252 -2.922518 9.108578 -13.335897 -7.325625 3.758042 0.647525 6.668835 13.540969 -12.309952 44.149975 45.099900 -41.134070 33.761310 -12.622346 -19.684063 6.978140 5.543472 2.960307 -6.430431 11.492417 -14.372215 -52.338370 -31.247777 -53.712589 -49.527793 24.428608 -10.922771 -6.611258 0.963643 3.469164 8.742672 -6.278345 27.353087 -1.617809 5.212607 -24.579904 1.705321 0.260786 -5.273282 -6.217690 15.158160 -23.474628 -2.071021 5.099679 6.606837 0.427402 9.117896 -0.143085 3.559472 0.000000 0.000000 0.000000
